<mxfile host="app.diagrams.net" modified="2024-06-12T18:21:10.977Z" agent="Mozilla/5.0 (X11; Linux x86_64; rv:109.0) Gecko/20100101 Firefox/115.0" etag="vdbp0unqnlF7vG_7EYrA" version="24.5.3" type="device">
  <diagram name="Page-1" id="v-gsDmoZH2cUb8syScjO">
    <mxGraphModel dx="1434" dy="742" grid="1" gridSize="10" guides="1" tooltips="1" connect="1" arrows="1" fold="1" page="1" pageScale="1" pageWidth="827" pageHeight="1169" math="0" shadow="0">
      <root>
        <mxCell id="0" />
        <mxCell id="1" parent="0" />
        <mxCell id="QlvwdcY9t59mbZWy9DWp-11" style="edgeStyle=orthogonalEdgeStyle;rounded=0;orthogonalLoop=1;jettySize=auto;html=1;exitX=1;exitY=0.5;exitDx=0;exitDy=0;entryX=0.5;entryY=0;entryDx=0;entryDy=0;" parent="1" source="QlvwdcY9t59mbZWy9DWp-1" target="QlvwdcY9t59mbZWy9DWp-2" edge="1">
          <mxGeometry relative="1" as="geometry" />
        </mxCell>
        <mxCell id="QlvwdcY9t59mbZWy9DWp-12" value="Socket readable event" style="edgeLabel;html=1;align=center;verticalAlign=middle;resizable=0;points=[];" parent="QlvwdcY9t59mbZWy9DWp-11" vertex="1" connectable="0">
          <mxGeometry x="0.1055" y="4" relative="1" as="geometry">
            <mxPoint x="-32" y="-6" as="offset" />
          </mxGeometry>
        </mxCell>
        <mxCell id="QlvwdcY9t59mbZWy9DWp-26" style="edgeStyle=orthogonalEdgeStyle;rounded=0;orthogonalLoop=1;jettySize=auto;html=1;exitX=0;exitY=0.5;exitDx=0;exitDy=0;entryX=0.5;entryY=0;entryDx=0;entryDy=0;" parent="1" source="QlvwdcY9t59mbZWy9DWp-1" target="QlvwdcY9t59mbZWy9DWp-7" edge="1">
          <mxGeometry relative="1" as="geometry" />
        </mxCell>
        <mxCell id="fukkkBQCOQvEnxG-Q12X-1" value="Socket writable event" style="edgeLabel;html=1;align=center;verticalAlign=middle;resizable=0;points=[];" parent="QlvwdcY9t59mbZWy9DWp-26" vertex="1" connectable="0">
          <mxGeometry x="-0.2923" y="-3" relative="1" as="geometry">
            <mxPoint x="-18" y="-7" as="offset" />
          </mxGeometry>
        </mxCell>
        <mxCell id="QlvwdcY9t59mbZWy9DWp-1" value="EPOLL" style="rounded=1;whiteSpace=wrap;html=1;" parent="1" vertex="1">
          <mxGeometry x="360" y="30" width="120" height="60" as="geometry" />
        </mxCell>
        <mxCell id="QlvwdcY9t59mbZWy9DWp-10" style="edgeStyle=orthogonalEdgeStyle;rounded=0;orthogonalLoop=1;jettySize=auto;html=1;exitX=0;exitY=0.5;exitDx=0;exitDy=0;entryX=0.5;entryY=0;entryDx=0;entryDy=0;" parent="1" source="QlvwdcY9t59mbZWy9DWp-2" target="QlvwdcY9t59mbZWy9DWp-4" edge="1">
          <mxGeometry relative="1" as="geometry" />
        </mxCell>
        <mxCell id="QlvwdcY9t59mbZWy9DWp-15" value="&lt;div&gt;Transfer control&lt;/div&gt;&lt;div&gt;when finished reading&lt;br&gt;&lt;/div&gt;" style="edgeLabel;html=1;align=center;verticalAlign=middle;resizable=0;points=[];" parent="QlvwdcY9t59mbZWy9DWp-10" vertex="1" connectable="0">
          <mxGeometry x="0.0578" y="-2" relative="1" as="geometry">
            <mxPoint x="62" y="-104" as="offset" />
          </mxGeometry>
        </mxCell>
        <mxCell id="QlvwdcY9t59mbZWy9DWp-13" style="edgeStyle=orthogonalEdgeStyle;rounded=0;orthogonalLoop=1;jettySize=auto;html=1;exitX=0.5;exitY=1;exitDx=0;exitDy=0;entryX=0.5;entryY=0;entryDx=0;entryDy=0;" parent="1" source="QlvwdcY9t59mbZWy9DWp-2" target="QlvwdcY9t59mbZWy9DWp-3" edge="1">
          <mxGeometry relative="1" as="geometry" />
        </mxCell>
        <mxCell id="QlvwdcY9t59mbZWy9DWp-14" value="Push to queue" style="edgeLabel;html=1;align=center;verticalAlign=middle;resizable=0;points=[];" parent="QlvwdcY9t59mbZWy9DWp-13" vertex="1" connectable="0">
          <mxGeometry x="-0.025" y="5" relative="1" as="geometry">
            <mxPoint x="35" as="offset" />
          </mxGeometry>
        </mxCell>
        <mxCell id="QlvwdcY9t59mbZWy9DWp-2" value="&lt;div&gt;Reader&lt;/div&gt;" style="rounded=1;whiteSpace=wrap;html=1;" parent="1" vertex="1">
          <mxGeometry x="640" y="100" width="120" height="60" as="geometry" />
        </mxCell>
        <mxCell id="QlvwdcY9t59mbZWy9DWp-16" style="edgeStyle=orthogonalEdgeStyle;rounded=0;orthogonalLoop=1;jettySize=auto;html=1;entryX=0.5;entryY=1;entryDx=0;entryDy=0;exitX=1;exitY=0.5;exitDx=0;exitDy=0;" parent="1" source="QlvwdcY9t59mbZWy9DWp-4" target="QlvwdcY9t59mbZWy9DWp-3" edge="1">
          <mxGeometry relative="1" as="geometry">
            <mxPoint x="650" y="510" as="sourcePoint" />
          </mxGeometry>
        </mxCell>
        <mxCell id="QlvwdcY9t59mbZWy9DWp-17" value="Pop packets" style="edgeLabel;html=1;align=center;verticalAlign=middle;resizable=0;points=[];" parent="QlvwdcY9t59mbZWy9DWp-16" vertex="1" connectable="0">
          <mxGeometry x="-0.0421" y="1" relative="1" as="geometry">
            <mxPoint x="-11" y="21" as="offset" />
          </mxGeometry>
        </mxCell>
        <mxCell id="QlvwdcY9t59mbZWy9DWp-3" value="&lt;div&gt;Packet queue&lt;/div&gt;" style="rounded=0;whiteSpace=wrap;html=1;" parent="1" vertex="1">
          <mxGeometry x="660" y="240" width="80" height="210" as="geometry" />
        </mxCell>
        <mxCell id="QlvwdcY9t59mbZWy9DWp-18" style="edgeStyle=orthogonalEdgeStyle;rounded=0;orthogonalLoop=1;jettySize=auto;html=1;exitX=0;exitY=0.5;exitDx=0;exitDy=0;entryX=0.75;entryY=1;entryDx=0;entryDy=0;" parent="1" source="QlvwdcY9t59mbZWy9DWp-4" target="QlvwdcY9t59mbZWy9DWp-1" edge="1">
          <mxGeometry relative="1" as="geometry">
            <mxPoint x="460" y="110" as="targetPoint" />
          </mxGeometry>
        </mxCell>
        <mxCell id="QlvwdcY9t59mbZWy9DWp-19" style="edgeStyle=orthogonalEdgeStyle;rounded=0;orthogonalLoop=1;jettySize=auto;html=1;exitX=0.5;exitY=1;exitDx=0;exitDy=0;fillColor=#d5e8d4;strokeColor=#82b366;dashed=1;entryX=1;entryY=0.5;entryDx=0;entryDy=0;" parent="1" source="QlvwdcY9t59mbZWy9DWp-4" target="QlvwdcY9t59mbZWy9DWp-21" edge="1">
          <mxGeometry relative="1" as="geometry">
            <mxPoint x="540" y="720" as="targetPoint" />
          </mxGeometry>
        </mxCell>
        <mxCell id="QlvwdcY9t59mbZWy9DWp-20" value="&lt;div&gt;Trigger events&lt;/div&gt;" style="edgeLabel;html=1;align=center;verticalAlign=middle;resizable=0;points=[];" parent="QlvwdcY9t59mbZWy9DWp-19" vertex="1" connectable="0">
          <mxGeometry x="-0.1362" y="3" relative="1" as="geometry">
            <mxPoint x="37" y="-4" as="offset" />
          </mxGeometry>
        </mxCell>
        <mxCell id="QlvwdcY9t59mbZWy9DWp-4" value="&lt;div&gt;Decoder&lt;/div&gt;&lt;div&gt;Handler&lt;br&gt;&lt;/div&gt;" style="rounded=1;whiteSpace=wrap;html=1;" parent="1" vertex="1">
          <mxGeometry x="480" y="510" width="120" height="60" as="geometry" />
        </mxCell>
        <mxCell id="QlvwdcY9t59mbZWy9DWp-5" value="&lt;div&gt;Encoder&lt;/div&gt;" style="rounded=1;whiteSpace=wrap;html=1;" parent="1" vertex="1">
          <mxGeometry x="240" y="510" width="120" height="60" as="geometry" />
        </mxCell>
        <mxCell id="QlvwdcY9t59mbZWy9DWp-6" value="&lt;div&gt;Byte queue&lt;/div&gt;" style="rounded=0;whiteSpace=wrap;html=1;" parent="1" vertex="1">
          <mxGeometry x="100" y="240" width="80" height="210" as="geometry" />
        </mxCell>
        <mxCell id="QlvwdcY9t59mbZWy9DWp-29" style="edgeStyle=orthogonalEdgeStyle;rounded=0;orthogonalLoop=1;jettySize=auto;html=1;exitX=0.5;exitY=1;exitDx=0;exitDy=0;entryX=0.5;entryY=0;entryDx=0;entryDy=0;" parent="1" source="QlvwdcY9t59mbZWy9DWp-7" target="QlvwdcY9t59mbZWy9DWp-6" edge="1">
          <mxGeometry relative="1" as="geometry" />
        </mxCell>
        <mxCell id="fukkkBQCOQvEnxG-Q12X-2" value="Send bytes" style="edgeLabel;html=1;align=center;verticalAlign=middle;resizable=0;points=[];" parent="QlvwdcY9t59mbZWy9DWp-29" vertex="1" connectable="0">
          <mxGeometry x="-0.225" y="2" relative="1" as="geometry">
            <mxPoint x="-32" as="offset" />
          </mxGeometry>
        </mxCell>
        <mxCell id="QlvwdcY9t59mbZWy9DWp-31" style="edgeStyle=orthogonalEdgeStyle;rounded=0;orthogonalLoop=1;jettySize=auto;html=1;exitX=1;exitY=0.5;exitDx=0;exitDy=0;entryX=0.25;entryY=1;entryDx=0;entryDy=0;" parent="1" source="QlvwdcY9t59mbZWy9DWp-7" target="QlvwdcY9t59mbZWy9DWp-1" edge="1">
          <mxGeometry relative="1" as="geometry" />
        </mxCell>
        <mxCell id="QlvwdcY9t59mbZWy9DWp-7" value="Writer" style="rounded=1;whiteSpace=wrap;html=1;" parent="1" vertex="1">
          <mxGeometry x="80" y="100" width="120" height="60" as="geometry" />
        </mxCell>
        <mxCell id="QlvwdcY9t59mbZWy9DWp-22" style="edgeStyle=orthogonalEdgeStyle;rounded=0;orthogonalLoop=1;jettySize=auto;html=1;exitX=0;exitY=0.5;exitDx=0;exitDy=0;entryX=0.5;entryY=1;entryDx=0;entryDy=0;fillColor=#d5e8d4;strokeColor=#82b366;dashed=1;" parent="1" source="QlvwdcY9t59mbZWy9DWp-21" target="QlvwdcY9t59mbZWy9DWp-5" edge="1">
          <mxGeometry relative="1" as="geometry" />
        </mxCell>
        <mxCell id="QlvwdcY9t59mbZWy9DWp-23" value="Receive events" style="edgeLabel;html=1;align=center;verticalAlign=middle;resizable=0;points=[];" parent="QlvwdcY9t59mbZWy9DWp-22" vertex="1" connectable="0">
          <mxGeometry x="0.2167" y="-5" relative="1" as="geometry">
            <mxPoint x="-45" y="6" as="offset" />
          </mxGeometry>
        </mxCell>
        <mxCell id="QlvwdcY9t59mbZWy9DWp-21" value="MAIN EVENT BUS" style="ellipse;whiteSpace=wrap;html=1;" parent="1" vertex="1">
          <mxGeometry x="360" y="710" width="120" height="80" as="geometry" />
        </mxCell>
        <mxCell id="QlvwdcY9t59mbZWy9DWp-30" style="edgeStyle=orthogonalEdgeStyle;rounded=0;orthogonalLoop=1;jettySize=auto;html=1;exitX=0;exitY=0.5;exitDx=0;exitDy=0;entryX=0.425;entryY=1.01;entryDx=0;entryDy=0;entryPerimeter=0;" parent="1" source="QlvwdcY9t59mbZWy9DWp-5" target="QlvwdcY9t59mbZWy9DWp-6" edge="1">
          <mxGeometry relative="1" as="geometry" />
        </mxCell>
        <mxCell id="fukkkBQCOQvEnxG-Q12X-3" value="Push bytes" style="edgeLabel;html=1;align=center;verticalAlign=middle;resizable=0;points=[];" parent="QlvwdcY9t59mbZWy9DWp-30" vertex="1" connectable="0">
          <mxGeometry x="-0.3399" y="-2" relative="1" as="geometry">
            <mxPoint y="12" as="offset" />
          </mxGeometry>
        </mxCell>
      </root>
    </mxGraphModel>
  </diagram>
</mxfile>
